<svg width="1130" height="656" viewBox="0 0 1130 656" fill="none" xmlns="http://www.w3.org/2000/svg">
          <path class="animation" d="M2 374.553C80.6028 322.151 154.494 254.195 215.31 182.151C255.802 134.183 315.49 78.5723 327.369 13.241C329.624 0.839595 310.766 0.745565 303.172 3.3742C278.855 11.7915 265.73 52.702 255.717 72.4417C228.684 125.736 199.592 178.114 172.789 231.72C133.845 309.608 106.504 389.563 78.1152 471.576C60.541 522.346 34.2561 573.827 31.6003 628.27C31.2401 635.655 27.3717 669.455 27.3717 645.185C27.3717 630.565 32.1149 610.453 40.5274 598.435C74.6157 549.737 106.424 501.341 145.303 455.602C168.349 428.488 193.092 392.005 226.117 375.493C239.247 368.928 235.465 401.746 233.634 407.442C225.45 432.904 144.345 608.949 185.945 615.349C201.391 617.726 217.086 600.951 227.526 592.092C256.893 567.175 279.987 537.546 306.461 509.869C334.798 480.243 361.433 442.453 361.433 399.925C361.433 375.449 330.182 409.859 325.489 414.96C294.3 448.862 290.816 535.857 311.159 575.413C395.764 739.923 735.695 290 747.647 189.903C750.139 169.029 730.89 198.281 729.088 201.884C707.414 245.232 685.16 288.598 667.773 333.911C644.275 395.149 620.263 458.026 600.82 520.675C591.858 549.55 578.096 588.209 581.556 619.343C583.053 632.817 597.316 626.516 605.283 623.102C654.134 602.166 687.512 559.812 721.335 520.206C781.394 449.878 836.231 377.219 889.54 301.727C910.95 271.408 940.119 239.621 948.271 202.119C949.772 195.216 950.562 184.772 940.754 191.078C923.939 201.888 909.329 237.598 900.582 254.742C852.984 348.034 809.664 442.965 795.101 546.987C787.01 604.782 836.127 569.087 860.41 546.987C898.302 512.5 932.718 473.239 960.957 430.465C970.176 416.5 992.088 393.078 993.846 375.493C997.888 335.08 957.085 450.115 953.909 490.605C952.701 506.018 951.275 541.175 970.824 547.692C999.312 557.188 1029.94 542.42 1052.81 526.548C1099.73 493.991 1159.34 407.012 1109.9 352C1082.55 321.567 1027.08 322.507 990.088 324.749C951.65 327.079 916.775 343.55 881.553 357.639" stroke="black" stroke-width="3" stroke-linecap="round"/>

</svg>
