<svg id="path" data-name="Layer 1" xmlns="http://www.w3.org/2000/svg" viewBox="0 0 1129.497 654.825">
  <path fill="white" stroke="black" stroke-width="1" stroke-dasharray="1000" d="M2,374.553c78.6-52.4,152.494-120.358,213.31-192.4C255.8,134.183,315.49,78.572,327.369,13.241c2.255-12.4-16.6-12.495-24.2-9.867C278.855,11.792,265.73,52.7,255.717,72.442c-27.033,53.294-56.125,105.672-82.928,159.278C133.845,309.608,106.5,389.563,78.115,471.576,60.541,522.346,34.256,573.827,31.6,628.27c-.36,7.385-4.228,41.185-4.228,16.915,0-14.62,4.743-34.732,13.155-46.75,34.089-48.7,65.9-97.094,104.776-142.833,23.046-27.114,47.789-63.6,80.814-80.109,13.13-6.565,9.348,26.253,7.517,31.949-8.184,25.462-89.289,201.507-47.689,207.907,15.446,2.377,31.141-14.4,41.581-23.257,29.367-24.917,52.461-54.546,78.935-82.223,28.337-29.626,54.972-67.416,54.972-109.944,0-24.476-31.251,9.934-35.944,15.035-31.189,33.9-34.673,120.9-14.33,160.453C395.764,739.923,735.7,290,747.647,189.9c2.492-20.874-16.757,8.378-18.559,11.981-21.674,43.348-43.928,86.714-61.315,132.027-23.5,61.238-47.51,124.115-66.953,186.764-8.962,28.875-22.724,67.534-19.264,98.668,1.5,13.474,15.76,7.173,23.727,3.759,48.851-20.936,82.229-63.29,116.052-102.9,60.059-70.328,114.9-142.987,168.2-218.479,21.41-30.319,50.579-62.106,58.731-99.608,1.5-6.9,2.291-17.347-7.517-11.041-16.815,10.81-31.425,46.52-40.172,63.664-47.6,93.292-90.918,188.223-105.481,292.245-8.091,57.8,41.026,22.1,65.309,0C898.3,512.5,932.718,473.239,960.957,430.465c9.219-13.965,31.131-37.387,32.889-54.972,4.042-40.413-36.761,74.622-39.937,115.112-1.208,15.413-2.634,50.57,16.915,57.087,28.488,9.5,59.116-5.272,81.986-21.144,46.92-32.557,106.53-119.536,57.09-174.548-27.35-30.433-82.82-29.493-119.812-27.251-38.438,2.33-73.313,18.8-108.535,32.89" transform="translate(-0.5 -0.5)" style="fill: none;stroke: #000;stroke-linecap: round;stroke-width: 3px"/>
</svg>
