<svg width="587" height="427" viewBox="0 0 587 427" fill="none" xmlns="http://www.w3.org/2000/svg">
            <path d="M107.715 228.955C90.7632 277.929 68.526 324.815 52.9784 374.373C51.4986 379.09 35.0225 428.126 51.099 400.919C57.4604 390.154 83.4975 351.883 83.2835 352.525C80.0484 362.23 59.6006 394.525 66.369 404.678C77.9621 422.068 116.027 304.749 101.373 380.951C95.6802 410.551 111.52 396.427 119.462 377.897C123.388 368.735 132.633 359.553 138.256 352.525C156.023 330.316 154.065 288.156 188.059 288.156C208.313 288.156 224.969 279.699 245.381 279.699C274.089 279.699 302.214 271.242 331.832 271.242C367.205 271.242 357.164 291.628 350.861 320.341C343.394 354.358 340.354 389.724 328.543 422.532C324.275 434.388 341.851 401.129 348.747 390.583C356.73 378.373 352.975 392.145 352.975 400.215C352.975 414.816 364.553 380.803 367.541 373.198C380.705 339.688 380.316 377.199 383.516 389.643C388.741 409.964 398.56 382.994 399.49 375.548C400.592 366.733 393.298 399.653 401.84 402.094C410.263 404.501 422.865 370.026 424.862 364.036C430.151 348.169 437.548 317.224 437.548 300.842C437.548 288.512 444.056 271.245 450.234 260.435C458.636 245.731 481.359 234.552 496.749 228.955C521.155 220.08 546.425 203.584 572.864 203.584C587.99 203.584 591.59 174.615 570.514 178.447C561.556 180.076 556.137 186.669 547.492 186.669C537.938 186.669 528.385 186.669 518.831 186.669C506.556 186.669 473.999 192.55 467.148 180.561C457.854 164.297 443.117 158.075 424.862 153.78C383.735 144.103 335.79 135.926 293.775 135.926C274.746 135.926 255.717 135.926 236.688 135.926C219.441 135.926 204.429 132.924 214.371 110.554C227.379 81.2846 217.183 38.6675 259.946 38.6675C294.126 38.6675 269.86 -4.60603 262.06 3.19406C245.25 20.0043 244.861 13.2958 221.888 13.2958C179.403 13.2958 139.263 30.2102 95.9693 30.2102C62.4983 30.2102 14.9069 26.0442 5.9937 66.1535C2.12286 83.5723 24.2701 76.7251 40.0576 76.7251C57.2916 76.7251 65.249 81.2042 79.9945 85.4172C85.6602 87.036 40.9605 104.984 35.829 107.265C26.4974 111.412 2 117.542 2 129.583C2 163.476 83.4254 117.511 90.5661 142.504C98.257 169.422 83.6596 251.954 95.0296 226.371C124.246 160.634 145.773 81.0705 145.773 7.42268C145.773 0.133325 144.328 22.3822 146.713 29.2706C150.679 40.7284 161.297 44.8208 171.145 39.6072C186.145 31.6658 183.081 -1.2903 160.808 5.07345C137.113 11.8434 181.756 45.683 179.602 9.06714C179.125 0.955081 161.894 4.06926 163.392 13.0608C166.614 32.3882 188.014 -5.00325 173.259 3.19406C168.584 5.79151 161.797 21.753 171.145 21.753C179.79 21.753 183.831 11.6369 183.831 13.2958C183.831 56.1338 171.145 97.1036 171.145 140.154C171.145 157.177 162.567 163.987 179.602 161.297C193.504 159.102 215.173 144.503 227.996 138.275C289.811 108.251 352.252 77.1855 409.827 40.5469C427.212 29.4838 438.07 25.9816 458.691 25.9816C468.914 25.9816 476.936 24.5691 479.599 36.5532C482.106 47.8345 431.523 56.2363 423.452 59.5757C400.332 69.1426 404.909 68.8687 428.151 64.0392C432.703 63.0932 495.782 55.4247 482.183 68.2678C472.384 77.5223 442.449 79.0783 429.326 80.7188C415.081 82.4994 435.57 80.9537 438.722 80.9537C457.454 80.9537 477.17 79.1176 495.809 81.1886C502.26 81.9054 501.915 86.8971 497.218 90.3506C483.393 100.517 464.879 97.8682 448.824 97.8682C409.865 97.8682 439.546 100.273 458.691 102.097C469.858 103.16 473.997 113.92 465.034 120.891C452.694 130.488 434.883 127.469 420.398 127.469C393.539 127.469 366.679 127.469 339.82 127.469C322.82 127.469 306.394 122.249 289.546 123.24C269.796 124.402 268.403 148.999 268.403 163.647C268.403 224.651 238.049 279.826 234.574 338.9C234.115 346.698 257.05 315.023 255.952 311.179C247.107 280.22 260.218 235.516 281.089 210.631C287.972 202.424 321.081 205.973 331.832 203.584C340.572 201.641 349.293 200.254 357.204 196.066C367.106 190.824 355.093 184.565 352.975 178.212" stroke="black" stroke-width="3" stroke-linecap="round"/>
</svg>
